<?xml version="1.0" encoding="UTF-8" standalone="no"?>
<svg
   xmlns:dc="http://purl.org/dc/elements/1.1/"
   xmlns:cc="http://creativecommons.org/ns#"
   xmlns:rdf="http://www.w3.org/1999/02/22-rdf-syntax-ns#"
   xmlns:svg="http://www.w3.org/2000/svg"
   xmlns="http://www.w3.org/2000/svg"
   xmlns:sodipodi="http://sodipodi.sourceforge.net/DTD/sodipodi-0.dtd"
   xmlns:inkscape="http://www.inkscape.org/namespaces/inkscape"
   height="841mm"
   width="1189mm"
   inkscape:version="1.0 (4035a4fb49, 2020-05-01)"
   sodipodi:docname="wave.svg"
   id="svg26"
   version="1.1"
   viewBox="0 0 4493.8583 3178.5827">
  <metadata
     id="metadata32">
    <rdf:RDF>
      <cc:Work
         rdf:about="">
        <dc:format>image/svg+xml</dc:format>
        <dc:type
           rdf:resource="http://purl.org/dc/dcmitype/StillImage" />
        <dc:title></dc:title>
      </cc:Work>
    </rdf:RDF>
  </metadata>
  <defs
     id="defs30" />
  <sodipodi:namedview
     units="mm"
     inkscape:current-layer="svg26"
     inkscape:window-maximized="0"
     inkscape:window-y="120"
     inkscape:window-x="262"
     inkscape:cy="160"
     inkscape:cx="739.90467"
     inkscape:zoom="0.72847222"
     showgrid="false"
     id="namedview28"
     inkscape:window-height="680"
     inkscape:window-width="1536"
     inkscape:pageshadow="2"
     inkscape:pageopacity="0"
     guidetolerance="10"
     gridtolerance="10"
     objecttolerance="10"
     borderopacity="1"
     bordercolor="#666666"
     pagecolor="#ffffff"></sodipodi:namedview>
  <path
     sodipodi:nodetypes="ccccccccccccccccccccccccc"
     id="path24"
     d="m 1.3727359,141.72736 33.5636801,31.76387 c 33.463677,34.10934 122.854814,32.34576 192.327644,-26.98189 35.45443,-23.03651 76.79981,-25.39113 129.79981,1.60887 53.3,27 130.33651,71.74547 183.33651,61.44547 53.3,-10.7 58.95424,-22.53603 111.95424,-54.53603 53.3,-32 134.45472,-38.86368 187.45472,-1.56368 53.3,37.7 79.54528,54.04509 132.54528,54.34509 C 1025.6546,207.50906 1067,139 1120,133.3 c 46.4363,-3.92726 112.4909,55.95453 165.4909,71.95453 C 1338.7909,221.25453 1387,192 1413,176 l 27,-16 V 320 H 1413.3 1280 1120 960 800 640 480 320 160 27 0 Z"
     fill-opacity="1"
     fill="#0099ff" />
</svg>
